<svg xmlns="http://www.w3.org/2000/svg" viewBox="0 0 256 256">
  <circle cx="128" cy="128" r="128" fill="#0d9488"/>
  <circle cx="128" cy="128" r="100" fill="#14b8a6"/>
  <path d="M80 100c0-8 4-12 8-12s8 4 8 12v56c0 8-4 12-8 12s-8-4-8-12V100z" fill="#5eead4"/>
  <path d="M104 110c0-6 3-10 6-10s6 4 6 10v36c0 6-3 10-6 10s-6-4-6-10v-36z" fill="#5eead4"/>
  <path d="M128 95c0-8 3-12 6-12s6 4 6 12v66c0 8-3 12-6 12s-6-4-6-12V95z" fill="#5eead4"/>
  <path d="M152 110c0-6 3-10 6-10s6 4 6 10v36c0 6-3 10-6 10s-6-4-6-10v-36z" fill="#5eead4"/>
  <path d="M176 100c0-8 4-12 8-12s8 4 8 12v56c0 8-4 12-8 12s-8-4-8-12V100z" fill="#5eead4"/>
  <path d="M60 180c0-4 2-8 6-10l20-12c4-2 8-1 10 2l8 12c2 3 2 7-1 10l-12 16c-3 4-8 5-12 3l-16-8c-2-1-3-4-3-7v-6z" fill="#99f6e4"/>
  <ellipse cx="70" cy="165" rx="8" ry="12" fill="#99f6e4"/>
  <path d="M195 70c0 8-6 14-14 14h-8c-4 0-8-2-10-5-2-3-2-7 0-10 2-3 6-5 10-5h8c8 0 14 6 14 14z" fill="#99f6e4"/>
  <path d="M195 86c0 8-6 14-14 14h-8c-4 0-8-2-10-5-2-3-2-7 0-10 2-3 6-5 10-5h8c8 0 14 6 14 14z" fill="#99f6e4"/>
  <path d="M173 62v36c0 3-2 6-5 6s-5-3-5-6V62c0-3 2-6 5-6s5 3 5 6z" fill="#99f6e4"/>
</svg>